<?xml version="1.0" standalone="no"?>
<!DOCTYPE svg PUBLIC "-//W3C//DTD SVG 20010904//EN"
 "http://www.w3.org/TR/2001/REC-SVG-20010904/DTD/svg10.dtd">
<svg version="1.0" xmlns="http://www.w3.org/2000/svg"
 width="260.000000pt" height="260.000000pt" viewBox="0 0 260.000000 260.000000"
 preserveAspectRatio="xMidYMid meet">
<metadata>
Created by potrace 1.11, written by Peter Selinger 2001-2013
</metadata>
<g transform="translate(0.000000,260.000000) scale(0.100000,-0.100000)"
fill="#000000" stroke="none">
<path d="M160 2532 c0 -4 -4 -43 -9 -87 -34 -284 -51 -598 -51 -913 0 -162 2
-297 4 -300 2 -4 7 -47 10 -97 12 -165 40 -319 71 -396 45 -111 124 -214 215
-281 157 -114 408 -131 685 -46 39 12 73 21 78 20 13 -3 8 16 -57 211 -126
378 -255 706 -367 932 -119 239 -165 310 -271 420 -43 44 -78 81 -78 83 0 28
139 -105 246 -234 111 -135 317 -442 363 -542 17 -36 27 -48 33 -40 5 9 7 7 6
-7 -1 -11 30 -85 69 -165 124 -255 241 -576 308 -851 33 -139 52 -185 81 -196
26 -10 52 27 94 135 49 124 128 314 163 393 14 30 39 88 57 129 59 136 170
351 236 456 68 108 123 164 161 164 20 0 17 -9 -41 -97 -243 -376 -393 -695
-404 -859 -5 -84 -16 -77 150 -96 247 -28 441 48 511 200 20 43 25 47 55 44
l32 -3 0 425 c0 234 -3 426 -7 426 -5 0 -4 77 0 171 5 94 7 173 5 175 -7 6
-303 -85 -404 -125 -419 -164 -616 -340 -668 -595 -40 -194 -1 -359 113 -487
l48 -53 -35 -88 c-20 -48 -39 -88 -42 -88 -8 0 -68 126 -109 231 -59 152 -87
315 -71 417 35 214 154 420 305 528 29 20 29 20 17 75 -45 198 -219 410 -457
554 -104 63 -366 187 -383 180 -7 -3 -11 -1 -8 3 5 8 -42 29 -429 193 -215 91
-225 95 -225 81z m1363 -1957 c-3 -9 -8 -14 -10 -11 -3 3 -2 9 2 15 9 16 15
13 8 -4z"/>
</g>
</svg>
